PathFileType	4	(X/Y/Z)	 s06c0203.trc
DataRate	CameraRate	NumFrames	NumMarkers	Units	OrigDataRate	OrigDataStartFrame	OrigNumFrames
200	200	4	48	mm	200	1251	2000
Frame#	Time	racr			lacr			c7			jug			rlel			rdr			llel			ldr			s2			lic			ric			lasi			rasi			rpsi			lpsi			rgt			lgt			rth1			rth2			rth3			rth4			rlfc			rmfc			rsh1			rsh2			rsh3			rsh4			rlmal			rcal			rtoe			rmt5			lth1			lth2			lth4			lth3			llfc			lmfc			llmal			lcal			lmt5			lsh1			lsh2			lsh3			lsh4			ltoe			SBIKE			LBIKE			RBIKE			
		X1	Y1	Z1	X2	Y2	Z2	X3	Y3	Z3	X4	Y4	Z4	X5	Y5	Z5	X6	Y6	Z6	X7	Y7	Z7	X8	Y8	Z8	X9	Y9	Z9	X10	Y10	Z10	X11	Y11	Z11	X12	Y12	Z12	X13	Y13	Z13	X14	Y14	Z14	X15	Y15	Z15	X16	Y16	Z16	X17	Y17	Z17	X18	Y18	Z18	X19	Y19	Z19	X20	Y20	Z20	X21	Y21	Z21	X22	Y22	Z22	X23	Y23	Z23	X24	Y24	Z24	X25	Y25	Z25	X26	Y26	Z26	X27	Y27	Z27	X28	Y28	Z28	X29	Y29	Z29	X30	Y30	Z30	X31	Y31	Z31	X32	Y32	Z32	X33	Y33	Z33	X34	Y34	Z34	X35	Y35	Z35	X36	Y36	Z36	X37	Y37	Z37	X38	Y38	Z38	X39	Y39	Z39	X40	Y40	Z40	X41	Y41	Z41	X42	Y42	Z42	X43	Y43	Z43	X44	Y44	Z44	X45	Y45	Z45	X46	Y46	Z46	X47	Y47	Z47	X48	Y48	Z48	
1251	6.2550	560.365947	1235.517025	-65.408752	595.725855	1203.810804	-378.733521	580.307515	1316.826120	-225.596901	543.382850	1158.973042	-219.324151	483.612943	1013.491374	78.478905	651.029718	918.022620	-52.383956	480.400264	990.694155	-522.926949	655.505977	925.517558	-405.174255	22.128058	1140.344175	-242.137312	178.616150	1096.273293	-396.601236	159.414470	1114.221636	-67.290729	190.986906	1049.164584	-352.304089	192.025444	1077.277253	-99.499257	51.878298	1175.328627	-209.154758	53.364529	1171.976370	-268.370983	121.281321	1026.115443	-36.232130	155.940558	1040.366919	-425.033700	195.345297	903.150804	-12.838625	252.953016	832.828756	-16.200276	267.660279	747.295510	-26.348264	285.203275	850.536184	-29.695378	295.933452	641.356798	-39.266096	289.536805	615.185777	-145.849986	269.576912	520.732400	-13.836115	274.688469	435.210351	-34.851707	238.940194	356.239718	-39.306978	296.904882	436.143962	-68.420289	216.053647	275.942440	-45.667984	152.147451	245.117842	-93.229768	428.721723	227.822663	-95.581103	332.662078	205.606946	-24.264420	222.245985	952.406251	-429.046686	303.169380	920.007126	-424.206154	324.294111	947.838993	-411.489035	358.493803	850.163231	-423.464851	403.425649	751.872532	-394.372503	400.428101	741.986296	-276.147397	85.007509	570.351009	-367.318984	10.893373	598.657341	-318.133727	122.890075	439.555394	-395.345119	320.067058	684.055197	-407.198229	256.827289	630.458200	-380.314594	170.739271	607.999214	-378.468428	271.713927	614.814167	-348.013998	191.197363	383.541188	-338.991313	-204.508953	866.426637	-203.009032	-52.209034	83.857940	-410.595800	-51.032866	79.842510	-13.717542	
1252	6.2600	560.941584	1235.616413	-69.777525	595.546481	1203.433725	-380.801404	581.268182	1317.105618	-228.259898	543.166341	1159.509363	-222.922362	485.728172	1014.789994	76.961309	653.605282	918.797365	-52.312634	480.576256	989.766501	-524.358845	655.368195	925.477803	-405.096653	22.482736	1140.104555	-237.735221	177.646802	1097.896748	-395.955893	162.885873	1114.341839	-65.979948	190.719120	1050.852978	-351.590343	194.404680	1076.801121	-98.562267	53.053740	1175.861617	-206.155703	53.732508	1172.774778	-265.410052	123.110082	1024.436830	-35.187677	154.916647	1043.954999	-423.716412	193.613766	899.133804	-12.014474	249.309025	827.081639	-15.833202	260.275843	740.968913	-26.884909	281.983676	843.481373	-29.768943	285.971623	634.655637	-39.207759	277.371023	608.219537	-146.320176	260.489040	514.841338	-13.459048	266.059164	429.207145	-34.585868	230.944698	350.046991	-38.774240	288.312596	430.423263	-68.060623	209.008052	269.361333	-45.217344	144.742551	239.080706	-92.381446	421.218479	219.261799	-95.979285	325.268518	198.157003	-24.210071	222.467106	956.632259	-428.824628	304.204885	926.327142	-424.399747	325.076975	955.111729	-412.782194	361.122948	857.452894	-423.142601	409.568804	760.990737	-393.448152	407.084492	751.891232	-275.110323	91.833808	578.299780	-367.089434	17.389891	605.931317	-317.899270	130.608301	447.663198	-395.222517	326.516690	693.393204	-406.613441	263.519102	639.332579	-380.136117	177.508409	616.512133	-378.297798	278.418581	623.567180	-347.981167	200.218747	392.830403	-339.024494	-204.499799	866.442812	-202.821264	-52.210591	83.908347	-410.565045	-51.032655	79.857732	-13.676702	
1253	6.2650	562.088547	1236.699242	-72.210970	595.302039	1203.076163	-382.875809	582.190704	1317.275635	-231.039489	543.367237	1159.899639	-224.810295	487.951847	1015.994056	75.301322	656.452749	919.611590	-52.272908	480.710785	989.103289	-525.957770	655.264349	925.558043	-404.917353	23.421051	1140.483931	-234.744181	176.734593	1099.389048	-395.155906	166.257090	1114.098886	-64.847364	190.481486	1052.379486	-350.955378	198.725079	1074.414480	-99.593620	54.287647	1176.705585	-203.771352	54.212200	1173.534282	-262.480887	125.035072	1022.765125	-34.118802	153.741773	1047.224852	-422.431726	192.009382	895.442849	-11.172052	245.286988	821.588306	-15.761637	252.793018	735.615053	-27.011727	278.243773	836.801633	-30.043992	276.392678	628.936409	-39.264733	265.204625	602.462224	-147.138660	252.055443	509.602173	-13.298002	257.699877	424.057862	-34.514113	222.763306	344.722051	-38.406959	279.781141	425.243265	-68.132640	201.783999	263.696644	-44.856929	137.114186	234.004391	-91.534918	413.400161	210.901891	-96.258176	317.537302	191.186857	-24.133700	222.498279	960.602801	-428.636817	305.032278	932.485030	-424.576188	325.276551	961.909041	-413.167431	363.835475	865.222205	-422.865279	415.752626	770.525199	-392.905090	413.741393	761.938305	-274.025803	98.810440	585.702568	-366.893706	24.187800	612.459038	-317.809718	138.717231	455.454485	-395.076886	333.056789	702.676189	-406.122497	270.377207	648.007425	-379.985274	184.512760	624.762783	-378.115507	285.395331	632.109217	-347.974791	209.134791	401.226644	-339.545040	-204.542106	866.473923	-202.607971	-52.234509	83.944269	-410.544044	-51.042522	79.824193	-13.674338	
1254	6.2700	563.326489	1237.833618	-74.355547	594.962271	1202.718959	-384.899975	582.899219	1317.442966	-233.817496	543.702503	1160.218918	-226.473329	491.415138	1017.018768	74.400949	659.468720	920.442965	-52.406054	480.783561	988.379770	-527.026911	655.228534	925.759651	-404.709220	21.392115	1138.387232	-221.557343	175.809534	1100.859784	-394.321526	169.722701	1113.384223	-63.977123	190.324894	1053.999652	-350.440721	201.046826	1073.340011	-98.271878	55.287694	1177.205732	-200.542183	54.626871	1174.086053	-259.294072	127.120859	1021.135144	-33.036709	152.553801	1050.163807	-421.124566	190.356888	892.147021	-10.678092	241.353296	816.622869	-15.859057	246.295093	730.526080	-27.846596	273.095719	830.486684	-31.368999	267.306648	624.309457	-39.469854	253.870894	597.871144	-148.037851	244.278353	505.004516	-13.336432	249.689717	419.553148	-34.627028	214.677824	340.218838	-37.994355	271.400853	420.696439	-68.486269	194.429073	258.967005	-44.460976	129.163040	229.832207	-90.674000	405.158226	203.236651	-96.546124	309.348953	184.727568	-23.996381	222.242817	964.178974	-428.324239	305.604020	938.579819	-424.664393	325.087024	968.648985	-413.244602	366.367638	872.970775	-422.945790	421.766927	780.085471	-392.357538	420.368429	772.005286	-273.192606	106.008338	592.634881	-366.642477	30.778890	618.378598	-317.408564	147.108547	462.633638	-394.927203	339.375434	711.805031	-405.875443	277.380248	656.454632	-379.817664	191.654836	632.604092	-377.938765	292.553337	640.487984	-347.919540	218.059794	409.301184	-339.571207	-204.547620	866.539991	-202.562946	-52.249116	84.000727	-410.548952	-51.052909	79.853931	-13.660206	
